<svg
   version="1.1"
   id="svg1"
   width="100%"
   height="100%"
   viewBox="0 0 1658 1649"
   sodipodi:docname="Europe-1914-transparent.svg"
   inkscape:version="1.3.2 (091e20e, 2023-11-25, custom)"
   xmlns:inkscape="http://www.inkscape.org/namespaces/inkscape"
   xmlns:sodipodi="http://sodipodi.sourceforge.net/DTD/sodipodi-0.dtd"
   xmlns="http://www.w3.org/2000/svg"
   xmlns:svg="http://www.w3.org/2000/svg"
   >
  <defs
     id="defs1"
    
  />
  <sodipodi:namedview
     id="namedview1"
     pagecolor="#ffffff"
     bordercolor="#000000"
     borderopacity="0.25"
     inkscape:showpageshadow="2"
     inkscape:pageopacity="0.0"
     inkscape:pagecheckerboard="0"
     inkscape:deskcolor="#d1d1d1"
     inkscape:zoom="2.8284271"
     inkscape:cx="542.70445"
     inkscape:cy="807.33916"
     inkscape:window-width="3840"
     inkscape:window-height="2050"
     inkscape:window-x="-12"
     inkscape:window-y="-12"
     inkscape:window-maximized="1"
     inkscape:current-layer="layer2" />

<g id="uk"
    inkscape:groupmode="layer"
    id="layer2"
    inkscape:label="UK"
    style="display:inline">
    <path
    style="opacity:1;stroke:#000000;stroke-width:1.0715;stroke-dasharray:none;stroke-opacity:1"
    d="m 370.18355,877.22797 28.50843,-13.43726 4.50133,-5.3242 6.00177,-0.50706 8.16909,-16.90222 4.58469,0.92963 5.1682,5.66223 3.66775,-1.09864 -0.58351,-7.01442 29.42537,7.43698 1.08366,-6.00029 13.50399,-5.74675 41.59565,25.35332 16.83832,10.81741 -2.16732,9.12721 -22.67337,-2.78888 -2.50074,-5.83126 -11.33669,5.40872 -9.75288,-0.0845 -2.75082,4.22555 -12.75377,-3.38044 -8.3358,-9.04268 -10.66983,2.61984 -10.25302,7.6905 0.66686,4.64812 -9.66954,4.14104 -2.58409,-7.77502 -18.50548,-4.73262 -2.91753,-2.70436 -15.75466,1.85925 -1.83388,7.69051 -6.66863,-6.76088 -13.25393,5.32419 z"
    id="path8" class="province" />
    <path
    style="opacity:1;stroke:#000000;stroke-width:1.0715;stroke-dasharray:none;stroke-opacity:1"
    d="m 490.05817,845.32116 40.37553,24.76399 -1.06629,10.90887 9.02238,4.01906 22.14583,-2.70671 3.19885,-5.98758 9.76057,-1.72246 -0.32809,-6.88981 -16.56836,-3.11682 -10.00664,-5.90556 14.51782,0.82022 3.28087,3.11682 4.1831,-4.01906 -7.79205,-6.80779 6.31566,-4.26512 c 0,0 6.56173,1.47639 6.88982,1.47639 0.32808,0 2.78873,-6.56173 2.78873,-6.56173 l -5.90555,-4.51119 -25.75479,-10.74483 -22.39189,2.78873 z"
    id="path9" class="province" />
    <path
    style="opacity:1;stroke:#000000;stroke-width:1.0715;stroke-dasharray:none;stroke-opacity:1"
    d="m 529.39187,794.86852 12.80357,-14.57902 6.44361,-0.67418 11.79937,15.59029 7.5315,-4.04505 8.36834,6.40467 4.01681,-2.35962 9.87464,5.3934 4.0168,7.92155 -1.17157,19.71962 c 0,0 -3.84943,3.37087 -4.10048,4.04505 -0.25105,0.67418 -1.25526,8.76427 -1.25526,8.76427 l -15.31405,-2.27534 -25.94186,-10.95534 -22.25978,2.02253 -14.47723,8.00582 -1.8866,-5.46677 -3.21809,-1.19071 -3.84943,2.78098 -6.27626,-1.68544 -2.76156,-7.5002 -13.13829,-14.24194 0.42839,-11.28892 14.71831,-10.2004 26.1929,-3.62368 4.68627,8.67999 z"
    id="path10" class="province"
    sodipodi:nodetypes="ccccccccccscccccccccccccccc" />
    <path
    style="opacity:1;stroke:#000000;stroke-width:1.0715;stroke-dasharray:none;stroke-opacity:1"
    d="m 472.44442,836.45629 15.99422,9.67855 21.73572,-7.79205 1.23032,-3.85502 -5.82353,-4.1831 -3.46225,2.47301 -7.93875,-2.39099 -2.54267,-5.98758 -7.24349,-7.96775 -4.56762,-16.72075 -9.26844,-4.34714 -1.8865,-7.38195 -6.31566,-1.1483 -30.10193,3.773 -3.44491,4.1831 -12.63132,-2.95278 -7.13588,3.85501 -4.26513,-2.05054 -10.41674,2.87076 6.56173,9.51451 -6.0696,4.42916 11.31898,1.55841 -6.56173,4.34715 1.55841,4.42916 16.89645,-5.16736 2.62469,-6.23364 3.60895,1.47639 2.05054,15.66613 10.00664,-3.44491 4.01906,9.92461 32.72662,-3.60895 z"
    id="path11" class="province"
    sodipodi:nodetypes="cccccccccccccccccccccccccccccccc" />
<g class="province">
    <path
        style="opacity:1;stroke:#000000;stroke-width:1.0715;stroke-dasharray:none;stroke-opacity:1"
        d="m 447.6868,789.06321 -2.37792,-21.34328 -5.50981,0.98597 -3.1899,5.10382 -7.07576,-4.87183 31.95692,-15.13749 7.48174,6.0318 2.55192,-4.40785 13.33955,5.10382 -8.58371,-12.70156 7.36575,-5.74181 13.16555,11.94759 12.23758,6.37979 13.97753,21.86526 -3.36389,3.65387 -25.40313,3.24789 -14.67351,9.97566 c -3.53393,1.77424 -6.07046,-2.43591 -9.10569,-3.65387 l -2.8999,-7.56875 z"
        id="path12"
        sodipodi:nodetypes="cccccccccccccccccccc" />
    <path
        style="opacity:1;stroke:#000000;stroke-width:0.999;stroke-dasharray:none;stroke-opacity:1"
        d="m 441.01366,759.65365 10.82757,-6.09879 -4.19844,-2.03294 -3.27037,-6.14299 -5.3033,4.24265 -0.88389,3.80069 z"
        id="path15" />
</g>
    <path
    style="opacity:1;stroke:#000000;stroke-width:1.0715;stroke-dasharray:none;stroke-opacity:1"
    d="m 483.87757,742.31679 -2.49392,-5.39381 6.26379,-7.07576 2.8999,-6.90177 7.53975,-6.61178 6.66977,2.9869 5.30682,2.37792 2.9289,-4.37885 25.92512,-7.82973 15.13749,8.98969 6.03179,8.11973 1.04397,11.19362 3.42188,3.53788 -4.98783,2.8999 6.61177,18.32738 -8.46771,-6.78577 -4.75584,-5.10383 -8.93169,1.04396 11.7156,10.90363 10.20765,23.43121 -9.80167,3.76987 -7.65574,-9.68567 -6.78577,0.63798 -11.83159,15.07948 -6.32179,-1.39195 -4.05986,-9.51168 3.07389,-2.55191 -14.4995,-22.21324 -11.9476,-6.49578 z"
    id="path13" class="province"
    sodipodi:nodetypes="cccccccccccccccccccccccccccccc" />
    <path
    style="opacity:1;stroke:#000000;stroke-width:1.0715;stroke-dasharray:none;stroke-opacity:1"
    d="m 488.35661,728.92597 -2.05054,-13.77963 -6.23364,0.65617 -3.4449,3.36289 -4.51119,-3.19884 -2.78874,-12.87739 3.0348,-4.18311 20.58742,-13.12345 9.02238,-3.52693 0.73819,-3.93704 6.15162,-4.67523 5.24939,-7.13588 5.24938,2.87076 6.88981,0.82021 4.26513,4.59321 3.52693,1.31235 -3.11682,23.13009 3.36288,9.26844 4.83928,1.39437 -25.83681,7.46397 -3.11682,4.67523 -11.81111,-5.49545 -7.01903,5.9155 z"
    id="path14" class="province"
    sodipodi:nodetypes="cccccccccccccccccccccccc" />
</g >

</svg>